<svg width="212" height="214" viewBox="0 0 212 214" fill="none" xmlns="http://www.w3.org/2000/svg">
<path d="M111.863 67.7539L116.602 14.2035L135.247 3.46676" stroke="black" stroke-width="8"/>
<path d="M69.9759 33.3045C72.107 28.0419 77.6347 24.993 83.2228 25.9981L138.152 35.8776C143.498 36.8392 147.532 41.2722 147.985 46.6853L150.519 76.8981C150.721 79.3102 151.648 81.6047 153.178 83.4804L196.915 137.099C199.908 140.768 200.463 145.854 198.333 150.083L177.63 191.176C175.613 195.179 171.533 197.725 167.051 197.776L45.2316 199.178C40.7563 199.229 36.6244 196.786 34.5129 192.84L9.0008 145.16C6.66715 140.798 7.2488 135.452 10.4657 131.694L46.513 89.5887C47.3557 88.6043 48.0335 87.4899 48.5199 86.2887L69.9759 33.3045Z" fill="#00A552"/>
<path d="M66.9405 147.913L58.6948 151.442L65.0417 166.272L58.5163 169.065L40.2883 126.472L55.0592 120.151C58.223 118.797 61.2001 118.154 63.9903 118.224C66.8032 118.236 69.3022 118.992 71.4874 120.49C73.6556 121.948 75.3829 124.18 76.6692 127.186C77.9386 130.152 78.3692 132.962 77.9612 135.616C77.5362 138.231 76.3742 140.6 74.4753 142.723C72.6159 144.829 70.1043 146.559 66.9405 147.913ZM57.3609 125.693L49.1746 129.196L56.3338 145.925L64.5201 142.421C67.4071 141.186 69.3397 139.47 70.318 137.273C71.3359 135.059 71.2863 132.648 70.1693 130.037C69.0353 127.388 67.3332 125.707 65.0629 124.994C62.8152 124.224 60.2479 124.457 57.3609 125.693Z" fill="white"/>
<path d="M92.0176 175.254C88.8235 175.499 85.9693 175.009 83.4549 173.784C80.9788 172.514 78.9767 170.623 77.4484 168.112C75.9201 165.6 75.0236 162.623 74.759 159.18C74.5071 155.903 74.9684 152.947 76.1428 150.311C77.3172 147.675 79.0309 145.541 81.2838 143.907C83.5335 142.232 86.1724 141.278 89.2006 141.046C91.6895 140.854 93.9455 141.161 95.9685 141.965C98.0298 142.724 99.8102 143.902 101.31 145.498C102.848 147.048 104.016 148.941 104.813 151.174C105.608 153.367 105.963 155.822 105.88 158.541L78.5641 160.64L78.2436 156.471L98.9017 154.884C98.5413 151.823 97.5076 149.504 95.8006 147.924C94.1318 146.3 92.0115 145.586 89.4396 145.784C87.5729 145.928 85.9727 146.551 84.6388 147.655C83.3432 148.715 82.3715 150.187 81.7236 152.073C81.114 153.914 80.9081 156.12 81.1057 158.692C81.3034 161.264 81.8473 163.455 82.7375 165.264C83.6245 167.032 84.8114 168.359 86.2983 169.247C87.7852 170.134 89.5242 170.501 91.5154 170.348C93.8799 170.166 95.7833 169.415 97.2257 168.094C98.7095 166.77 99.6175 165.01 99.9495 162.815L106.172 162.336C105.664 166.047 104.144 169.064 101.61 171.387C99.1143 173.665 95.917 174.954 92.0176 175.254Z" fill="white"/>
<path d="M128.993 169.697L129.558 165.074C128.416 166.613 126.982 167.734 125.256 168.439C123.529 169.143 121.557 169.359 119.34 169.088C116.258 168.711 113.876 167.6 112.195 165.754C110.518 163.87 109.847 161.557 110.183 158.813C110.542 155.882 111.959 153.804 114.436 152.581C116.95 151.363 120.424 151.025 124.859 151.568C125.724 151.673 126.567 151.796 127.389 151.934C128.211 152.073 129.215 152.291 130.399 152.589L130.668 150.39C130.925 148.285 130.58 146.584 129.633 145.285C128.69 143.949 127.223 143.16 125.231 142.916C123.164 142.663 121.437 143.062 120.049 144.113C118.704 145.131 117.867 146.669 117.539 148.727L112.353 148.092C112.704 145.847 113.488 143.959 114.705 142.429C115.964 140.867 117.532 139.743 119.409 139.057C121.328 138.338 123.452 138.121 125.783 138.406C129.466 138.856 132.2 140.202 133.986 142.442C135.814 144.649 136.51 147.538 136.073 151.109L133.728 170.276L128.993 169.697ZM115.616 159.306C115.427 160.847 115.821 162.154 116.796 163.227C117.771 164.3 119.16 164.946 120.964 165.167C123.369 165.461 125.35 165.017 126.906 163.834C128.467 162.614 129.387 160.857 129.668 158.565L129.964 156.14C128.888 155.894 127.939 155.702 127.117 155.563C126.299 155.387 125.515 155.253 124.763 155.161C121.907 154.811 119.711 154.982 118.178 155.671C116.686 156.328 115.832 157.54 115.616 159.306Z" fill="white"/>
<path d="M149.774 159.746L147.359 175.5L141.487 174.6L146.211 143.79L151.676 144.628L150.678 151.139C152.09 149.173 153.956 147.734 156.278 146.821C158.638 145.913 161.078 145.653 163.597 146.039L162.661 152.143C160.47 151.688 158.455 151.637 156.616 151.99C154.816 152.348 153.302 153.167 152.074 154.447C150.892 155.693 150.125 157.46 149.774 159.746Z" fill="white"/>
</svg>
