<svg width="623" height="623" viewBox="0 0 623 623" fill="none" xmlns="http://www.w3.org/2000/svg">
<path d="M0 217C0 97.1543 97.1542 0 217 0H405.284C525.13 0 622.284 97.1542 622.284 217V405.284C622.284 525.13 525.13 622.284 405.284 622.284H217C97.1543 622.284 0 525.13 0 405.284V217Z" fill="white"/>
<path d="M297.553 82.2688L249.791 96.0082C249.432 96.1116 249.059 96.1641 248.685 96.1641L218.016 96.1636C215.88 96.1636 214.121 97.8416 214.021 99.9751L212.889 123.949C212.762 126.645 215.286 128.69 217.897 128.007L246.991 120.397C249.246 119.807 251.526 121.263 251.94 123.557L256.839 150.712C257.203 152.734 259.041 154.151 261.089 153.989L285.199 152.091C287.843 151.883 289.556 149.207 288.638 146.719L277.897 117.61C277.118 115.499 278.233 113.16 280.364 112.437L305.083 104.05C307.206 103.329 308.323 101.004 307.557 98.8963L302.419 84.7475C301.701 82.7706 299.575 81.6874 297.553 82.2688Z" fill="black"/>
<path d="M421.784 275.522L351.272 156.245C348.709 151.909 343.711 149.635 338.759 150.551L212.127 173.979C207.207 174.889 203.369 178.756 202.495 183.683L186.071 276.288C185.813 277.746 185.287 279.143 184.52 280.409L124.756 379.097C122.794 382.337 122.477 386.314 123.901 389.824L160.138 479.152C161.975 483.679 166.372 486.641 171.258 486.641H437.328C440.834 486.641 444.165 485.107 446.445 482.443L502.819 416.569C505.157 413.836 506.147 410.198 505.514 406.657L489.673 317.945C489.016 314.268 486.685 311.106 483.367 309.392L426.607 280.077C424.603 279.042 422.932 277.464 421.784 275.522Z" fill="#00A552"/>
<path d="M333.301 121.053C350.364 117.896 367.58 125.558 376.67 140.272L377.097 140.978L444.974 255.799L497.133 282.738L497.675 283.023C508.822 288.987 516.691 299.658 519.094 312.069L519.206 312.672L535.047 401.384C537.261 413.777 533.797 426.51 525.612 436.075L469.239 501.949C461.259 511.273 449.6 516.641 437.328 516.641H171.258C154.159 516.641 138.766 506.275 132.338 490.43L96.1011 401.101C91.1172 388.816 92.2275 374.897 99.0952 363.556L157.118 267.743L172.956 178.444C176.014 161.201 189.45 147.665 206.67 144.479L333.301 121.053ZM351.272 156.245C348.709 151.909 343.712 149.635 338.759 150.552L212.127 173.978C207.207 174.889 203.368 178.757 202.495 183.683L186.071 276.289L185.961 276.832C185.677 278.093 185.191 279.301 184.52 280.409L124.756 379.097C122.794 382.338 122.477 386.314 123.901 389.824L160.138 479.152C161.917 483.538 166.1 486.455 170.801 486.633L171.258 486.641H437.328C440.725 486.641 443.958 485.202 446.229 482.69L446.446 482.443L502.819 416.569C505.158 413.836 506.147 410.198 505.514 406.657L489.673 317.945C489.037 314.383 486.829 311.305 483.674 309.557L483.367 309.392L426.607 280.078C424.728 279.108 423.142 277.659 422.005 275.882L421.784 275.522L351.272 156.245Z" fill="black"/>
<path d="M421.784 275.522L351.272 156.245C348.709 151.909 343.711 149.635 338.759 150.551L212.127 173.979C207.207 174.889 203.369 178.756 202.495 183.683L186.071 276.288C185.813 277.746 185.287 279.143 184.52 280.409L124.756 379.097C122.794 382.337 122.477 386.314 123.901 389.824L160.138 479.152C161.975 483.679 166.372 486.641 171.258 486.641H437.328C440.834 486.641 444.165 485.107 446.445 482.443L502.819 416.569C505.157 413.836 506.147 410.198 505.514 406.657L489.673 317.945C489.016 314.268 486.685 311.106 483.367 309.392L426.607 280.077C424.603 279.042 422.932 277.464 421.784 275.522Z" fill="black"/>
<path d="M336.552 135.711C347.349 133.931 358.16 138.849 363.911 148.158L364.184 148.612L434.257 267.146L490.25 296.066C497.483 299.802 502.632 306.594 504.29 314.536L504.44 315.309L520.281 404.021C521.659 411.739 519.613 419.662 514.7 425.74L514.215 426.323L457.842 492.197C452.713 498.191 445.217 501.642 437.328 501.642H171.258C160.266 501.642 150.371 494.977 146.239 484.791L110.002 395.463C106.798 387.565 107.51 378.618 111.925 371.327L171.398 273.118L187.725 181.064C189.691 169.979 198.329 161.278 209.399 159.23L336.031 135.802L336.552 135.711ZM216.901 188.35L200.84 278.908C200.259 282.188 199.076 285.331 197.351 288.18L138.367 385.579L173.278 471.642H435.947L490.499 407.896L475.167 322.041L419.724 293.406C415.215 291.077 411.454 287.524 408.872 283.156L339.426 165.683L216.901 188.35Z" fill="white"/>
<path d="M421.784 275.522L351.272 156.245C348.709 151.909 343.711 149.635 338.759 150.551L212.127 173.979C207.207 174.889 203.369 178.756 202.495 183.683L186.071 276.288C185.813 277.746 185.287 279.143 184.52 280.409L124.756 379.097C122.794 382.337 122.477 386.314 123.901 389.824L160.138 479.152C161.975 483.679 166.372 486.641 171.258 486.641H437.328C440.834 486.641 444.165 485.107 446.445 482.443L502.819 416.569C505.157 413.836 506.147 410.198 505.514 406.657L489.673 317.945C489.016 314.268 486.685 311.106 483.367 309.392L426.607 280.077C424.603 279.042 422.932 277.464 421.784 275.522Z" fill="black"/>
<path d="M338.759 150.551C343.712 149.635 348.709 151.909 351.272 156.245L421.784 275.522C422.931 277.464 424.603 279.043 426.607 280.078L483.367 309.392C486.685 311.106 489.017 314.268 489.673 317.945L505.514 406.657C506.146 410.198 505.157 413.836 502.819 416.569L446.446 482.443L446.229 482.69C443.957 485.202 440.724 486.641 437.328 486.641H171.258L170.801 486.632C166.252 486.46 162.188 483.723 160.318 479.572L160.138 479.152L123.901 389.824C122.477 386.314 122.794 382.337 124.756 379.097L184.52 280.409C185.191 279.301 185.677 278.093 185.961 276.832L186.071 276.289L202.495 183.683C203.368 178.757 207.207 174.888 212.127 173.978L338.759 150.551ZM216.901 188.349L200.84 278.908C200.259 282.187 199.076 285.331 197.351 288.179L138.367 385.579L173.278 471.641H435.947L490.498 407.895L475.166 322.041L419.724 293.405C415.215 291.076 411.454 287.523 408.871 283.155L339.426 165.682L216.901 188.349Z" fill="white"/>
<path d="M340.193 421.083V445.994H334.009V399.441H339.751V410.041C341.4 406.626 343.814 403.887 346.994 401.826C350.174 399.765 353.678 398.734 357.506 398.734V405.183C354.267 405.065 351.323 405.625 348.673 406.861C346.082 408.098 344.02 409.924 342.489 412.338C340.958 414.752 340.193 417.668 340.193 421.083Z" fill="white"/>
<path d="M319.235 445.994V437.513C317.88 440.399 315.849 442.696 313.14 444.404C310.431 446.053 307.251 446.877 303.6 446.877C298.771 446.877 294.913 445.64 292.028 443.167C289.142 440.635 287.699 437.278 287.699 433.097C287.699 428.562 289.495 425.147 293.088 422.85C296.68 420.494 302.01 419.316 309.076 419.316C310.49 419.316 311.874 419.346 313.228 419.405C314.583 419.464 316.379 419.611 318.617 419.846V415.871C318.617 411.985 317.615 408.952 315.613 406.773C313.67 404.594 310.931 403.504 307.398 403.504C303.629 403.504 300.626 404.623 298.388 406.861C296.15 409.04 295.002 412.014 294.943 415.783H289.289C289.348 412.308 290.143 409.305 291.674 406.773C293.205 404.182 295.296 402.179 297.946 400.766C300.655 399.294 303.776 398.558 307.31 398.558C312.786 398.558 317.027 400.059 320.03 403.063C323.033 406.066 324.535 410.277 324.535 415.695V445.994H319.235ZM293.618 432.92C293.618 435.747 294.619 438.043 296.621 439.81C298.623 441.518 301.244 442.372 304.483 442.372C308.841 442.372 312.286 441.076 314.818 438.485C317.35 435.835 318.617 432.331 318.617 427.973V423.821C316.614 423.645 314.877 423.527 313.405 423.468C311.991 423.409 310.637 423.38 309.341 423.38C304.1 423.38 300.154 424.175 297.504 425.765C294.913 427.296 293.618 429.681 293.618 432.92Z" fill="white"/>
<path d="M263.435 446.877C259.077 446.877 255.249 445.876 251.951 443.874C248.712 441.812 246.18 438.927 244.354 435.217C242.588 431.507 241.704 427.208 241.704 422.32C241.704 417.785 242.617 413.751 244.443 410.218C246.327 406.626 248.859 403.799 252.04 401.738C255.279 399.618 258.959 398.558 263.081 398.558C266.379 398.558 269.353 399.205 272.003 400.501C274.712 401.738 276.98 403.504 278.805 405.801C280.69 408.098 282.074 410.807 282.957 413.928C283.899 416.99 284.223 420.406 283.929 424.175H245.061V419.935H277.48C277.245 414.694 275.831 410.63 273.24 407.744C270.708 404.8 267.292 403.328 262.993 403.328C259.99 403.328 257.34 404.123 255.043 405.713C252.805 407.244 251.038 409.423 249.743 412.25C248.447 415.076 247.799 418.433 247.799 422.32C247.799 426.324 248.418 429.828 249.655 432.832C250.891 435.776 252.658 438.043 254.955 439.633C257.31 441.224 260.108 442.019 263.346 442.019C267.233 442.019 270.443 440.988 272.975 438.927C275.566 436.807 277.245 433.921 278.01 430.27H284.105C283.045 435.393 280.66 439.457 276.95 442.46C273.299 445.405 268.794 446.877 263.435 446.877Z" fill="white"/>
<path d="M217.781 422.673H203.559V445.993H196.934V382.568H217.781C222.139 382.568 225.967 383.363 229.265 384.953C232.563 386.485 235.124 388.722 236.95 391.667C238.834 394.611 239.777 398.233 239.777 402.532C239.777 406.831 238.834 410.482 236.95 413.486C235.124 416.489 232.563 418.786 229.265 420.376C225.967 421.907 222.139 422.673 217.781 422.673ZM217.693 388.222H203.559V417.019H217.693C222.404 417.019 226.144 415.753 228.911 413.221C231.738 410.688 233.152 407.126 233.152 402.532C233.152 397.939 231.738 394.405 228.911 391.932C226.144 389.459 222.404 388.222 217.693 388.222Z" fill="white"/>
</svg>
