<svg width="212" height="210" viewBox="0 0 212 210" fill="none" xmlns="http://www.w3.org/2000/svg">
<path d="M112.228 67.7539L116.967 14.2035L135.612 3.46676" stroke="black" stroke-width="8"/>
<path d="M69.9761 30.0252C72.1072 24.7626 77.6349 21.7137 83.2229 22.7188L138.152 32.5983C143.498 33.5599 147.532 37.9929 147.986 43.406L150.519 73.6188C150.721 76.0309 151.648 78.3254 153.178 80.2011L196.915 133.819C199.908 137.489 200.463 142.575 198.333 146.803L177.63 187.897C175.613 191.9 171.533 194.445 167.051 194.497L45.2317 195.898C40.7565 195.95 36.6245 193.507 34.513 189.56L9.00092 141.88C6.66728 137.519 7.24893 132.172 10.4658 128.415L46.5131 86.3094C47.3559 85.325 48.0336 84.2106 48.52 83.0094L69.9761 30.0252Z" fill="#00A552"/>
</svg>
