<svg width="443" height="444" viewBox="0 0 443 444" fill="none" xmlns="http://www.w3.org/2000/svg">
<path d="M204.533 8.94752L156.77 22.6869C156.411 22.7903 156.039 22.8428 155.664 22.8428L124.995 22.8423C122.86 22.8423 121.1 24.5203 121 26.6538L119.869 50.6275C119.742 53.3232 122.266 55.3687 124.876 54.6858L153.97 47.0757C156.225 46.4858 158.505 47.9414 158.919 50.2353L163.818 77.3905C164.183 79.4125 166.02 80.8292 168.068 80.668L192.179 78.7701C194.822 78.562 196.536 75.8857 195.617 73.3977L184.876 44.2886C184.097 42.1773 185.212 39.8391 187.343 39.116L212.062 30.7283C214.186 30.0077 215.302 27.6827 214.536 25.575L209.398 11.4262C208.68 9.4493 206.554 8.36607 204.533 8.94752Z" fill="black"/>
<path d="M328.763 202.201L258.251 82.9232C255.688 78.5877 250.691 76.3139 245.738 77.2301L119.107 100.657C114.187 101.567 110.348 105.435 109.474 110.362L93.0503 202.967C92.7918 204.424 92.2659 205.821 91.4992 207.088L31.7355 305.775C29.7733 309.016 29.4562 312.992 30.8802 316.502L67.1173 405.831C68.9539 410.358 73.3517 413.32 78.2372 413.32H344.307C347.814 413.32 351.145 411.786 353.425 409.122L409.798 343.248C412.137 340.515 413.126 336.877 412.494 333.336L396.652 244.624C395.996 240.947 393.664 237.785 390.346 236.071L333.586 206.756C331.582 205.721 329.911 204.142 328.763 202.201Z" fill="#00A552"/>
<path d="M240.281 47.7313C257.343 44.5746 274.559 52.2365 283.65 66.951L284.076 67.6571L351.953 182.477L404.113 209.417L404.655 209.702C415.801 215.666 423.67 226.336 426.074 238.748L426.185 239.35L442.027 328.062C444.24 340.456 440.776 353.189 432.591 362.754L376.218 428.628C368.239 437.952 356.579 443.32 344.307 443.32H78.2376C61.1382 443.32 45.7455 432.953 39.3176 417.108L3.08034 327.78C-1.90354 315.494 -0.793302 301.576 6.07448 290.235L64.0969 194.422L79.9348 105.123C82.993 87.8798 96.4296 74.3438 113.65 71.158L240.281 47.7313ZM258.251 82.9237C255.688 78.5882 250.691 76.3142 245.739 77.2303L119.107 100.657C114.187 101.567 110.348 105.436 109.474 110.362L93.0501 202.968L92.9407 203.511C92.6564 204.772 92.1702 205.98 91.4993 207.088L31.7356 305.776C29.7736 309.016 29.4562 312.993 30.8801 316.503L67.1174 405.831C68.8966 410.217 73.0793 413.133 77.7805 413.311L78.2376 413.32H344.307C347.704 413.32 350.937 411.881 353.208 409.369L353.425 409.122L409.798 343.248C412.137 340.515 413.126 336.877 412.493 333.336L396.653 244.624C396.017 241.062 393.808 237.983 390.654 236.236L390.346 236.071L333.586 206.757C331.708 205.786 330.121 204.337 328.985 202.56L328.763 202.201L258.251 82.9237Z" fill="black"/>
<path d="M328.763 202.201L258.251 82.9232C255.688 78.5877 250.691 76.3139 245.738 77.2301L119.107 100.657C114.187 101.567 110.348 105.435 109.474 110.362L93.0503 202.967C92.7918 204.424 92.2659 205.821 91.4992 207.088L31.7355 305.775C29.7733 309.016 29.4562 312.992 30.8802 316.502L67.1173 405.831C68.9539 410.358 73.3517 413.32 78.2372 413.32H344.307C347.814 413.32 351.145 411.786 353.425 409.122L409.798 343.248C412.137 340.515 413.126 336.877 412.494 333.336L396.652 244.624C395.996 240.947 393.664 237.785 390.346 236.071L333.586 206.756C331.582 205.721 329.911 204.142 328.763 202.201Z" fill="black"/>
<path d="M243.532 62.3899C254.328 60.6093 265.139 65.5276 270.89 74.8371L271.163 75.2903L341.237 193.824L397.229 222.744C404.462 226.48 409.611 233.273 411.269 241.215L411.419 241.988L427.26 330.699C428.638 338.418 426.592 346.34 421.679 352.418L421.195 353.001L364.822 418.875C359.692 424.869 352.196 428.321 344.307 428.321H78.2376C67.2452 428.321 57.3503 421.656 53.2181 411.47L16.9808 322.142C13.7769 314.244 14.4897 305.297 18.9046 298.006L78.3773 199.797L94.7044 107.742C96.6705 96.6577 105.308 87.9564 116.378 85.9084L243.01 62.4807L243.532 62.3899ZM123.88 115.029L107.82 205.587C107.238 208.866 106.056 212.01 104.33 214.859L45.346 312.258L80.2572 398.321H342.926L397.478 334.574L382.146 248.72L326.703 220.084C322.195 217.756 318.433 214.203 315.851 209.834L246.406 92.3616L123.88 115.029Z" fill="white"/>
<path d="M328.763 202.201L258.251 82.9232C255.688 78.5877 250.691 76.3139 245.738 77.2301L119.107 100.657C114.187 101.567 110.348 105.435 109.474 110.362L93.0503 202.967C92.7918 204.424 92.2659 205.821 91.4992 207.088L31.7355 305.775C29.7733 309.016 29.4562 312.992 30.8802 316.502L67.1173 405.831C68.9539 410.358 73.3517 413.32 78.2372 413.32H344.307C347.814 413.32 351.145 411.786 353.425 409.122L409.798 343.248C412.137 340.515 413.126 336.877 412.494 333.336L396.652 244.624C395.996 240.947 393.664 237.785 390.346 236.071L333.586 206.756C331.582 205.721 329.911 204.142 328.763 202.201Z" fill="black"/>
<path d="M245.738 77.2301C250.691 76.314 255.688 78.588 258.251 82.9234L328.763 202.201C329.911 204.142 331.582 205.721 333.586 206.756L390.346 236.071C393.664 237.785 395.996 240.947 396.652 244.624L412.493 333.336C413.126 336.877 412.137 340.515 409.798 343.248L353.425 409.122L353.208 409.369C350.937 411.881 347.704 413.32 344.307 413.32H78.2375L77.7804 413.311C73.2308 413.139 69.1669 410.402 67.297 406.251L67.1173 405.831L30.88 316.503C29.4561 312.992 29.7734 309.016 31.7355 305.776L91.4992 207.087C92.1701 205.98 92.6563 204.771 92.9406 203.51L93.05 202.967L109.474 110.362C110.348 105.435 114.187 101.567 119.107 100.657L245.738 77.2301ZM123.88 115.028L107.819 205.587C107.238 208.866 106.055 212.009 104.33 214.858L45.3458 312.257L80.257 398.32H342.926L397.478 334.574L382.146 248.719L326.703 220.084C322.194 217.755 318.433 214.202 315.851 209.834L246.405 92.3609L123.88 115.028Z" fill="white"/>
<path d="M247.172 347.762V372.672H240.988V326.12H246.73V336.72C248.379 333.304 250.793 330.566 253.974 328.505C257.154 326.444 260.658 325.413 264.485 325.413V331.862C261.247 331.744 258.302 332.303 255.652 333.54C253.061 334.777 251 336.602 249.468 339.017C247.937 341.431 247.172 344.346 247.172 347.762Z" fill="white"/>
<path d="M226.214 372.672V364.192C224.86 367.078 222.828 369.374 220.119 371.082C217.41 372.731 214.23 373.556 210.579 373.556C205.75 373.556 201.893 372.319 199.007 369.846C196.121 367.313 194.678 363.957 194.678 359.775C194.678 355.241 196.475 351.825 200.067 349.529C203.659 347.173 208.989 345.995 216.056 345.995C217.469 345.995 218.853 346.025 220.207 346.083C221.562 346.142 223.358 346.29 225.596 346.525V342.55C225.596 338.663 224.595 335.63 222.592 333.451C220.649 331.273 217.911 330.183 214.377 330.183C210.608 330.183 207.605 331.302 205.367 333.54C203.129 335.719 201.981 338.693 201.922 342.462H196.269C196.327 338.987 197.122 335.984 198.654 333.451C200.185 330.86 202.275 328.858 204.925 327.445C207.634 325.972 210.755 325.236 214.289 325.236C219.766 325.236 224.006 326.738 227.009 329.741C230.013 332.745 231.514 336.955 231.514 342.373V372.672H226.214ZM200.597 359.599C200.597 362.425 201.598 364.722 203.6 366.489C205.603 368.197 208.223 369.051 211.462 369.051C215.82 369.051 219.265 367.755 221.797 365.164C224.33 362.514 225.596 359.01 225.596 354.652V350.5C223.594 350.324 221.856 350.206 220.384 350.147C218.971 350.088 217.616 350.059 216.321 350.059C211.079 350.059 207.134 350.854 204.484 352.444C201.893 353.975 200.597 356.36 200.597 359.599Z" fill="white"/>
<path d="M170.414 373.556C166.056 373.556 162.228 372.555 158.93 370.552C155.692 368.491 153.159 365.606 151.334 361.895C149.567 358.185 148.684 353.886 148.684 348.998C148.684 344.464 149.596 340.43 151.422 336.897C153.306 333.304 155.839 330.478 159.019 328.416C162.258 326.296 165.938 325.236 170.061 325.236C173.359 325.236 176.333 325.884 178.983 327.18C181.692 328.416 183.959 330.183 185.784 332.48C187.669 334.777 189.053 337.485 189.936 340.607C190.878 343.669 191.202 347.085 190.908 350.854H152.04V346.613H184.459C184.224 341.372 182.81 337.309 180.219 334.423C177.687 331.479 174.271 330.006 169.972 330.006C166.969 330.006 164.319 330.801 162.022 332.391C159.784 333.923 158.018 336.102 156.722 338.928C155.427 341.755 154.779 345.112 154.779 348.998C154.779 353.003 155.397 356.507 156.634 359.51C157.87 362.455 159.637 364.722 161.934 366.312C164.289 367.902 167.087 368.697 170.326 368.697C174.212 368.697 177.422 367.667 179.954 365.606C182.545 363.485 184.224 360.6 184.989 356.949H191.084C190.024 362.072 187.639 366.136 183.929 369.139C180.278 372.083 175.773 373.556 170.414 373.556Z" fill="white"/>
<path d="M124.76 349.351H110.538V372.672H103.913V309.247H124.76C129.118 309.247 132.946 310.042 136.244 311.632C139.542 313.163 142.104 315.401 143.929 318.346C145.814 321.29 146.756 324.912 146.756 329.211C146.756 333.51 145.814 337.161 143.929 340.164C142.104 343.168 139.542 345.465 136.244 347.055C132.946 348.586 129.118 349.351 124.76 349.351ZM124.672 314.901H110.538V343.698H124.672C129.383 343.698 133.123 342.432 135.891 339.899C138.717 337.367 140.131 333.804 140.131 329.211C140.131 324.617 138.717 321.084 135.891 318.611C133.123 316.137 129.383 314.901 124.672 314.901Z" fill="white"/>
</svg>
