<svg width="443" height="440" viewBox="0 0 443 440" fill="none" xmlns="http://www.w3.org/2000/svg">
<path d="M210.188 10.6572L158.835 19.3917C158.645 19.4241 158.452 19.4427 158.259 19.4473L122.599 20.2894C120.209 20.3458 118.402 22.4714 118.731 24.8387L121.313 43.4231C121.643 45.7958 123.97 47.3486 126.288 46.7424L156.314 38.8884C158.56 38.3007 160.834 39.7434 161.258 42.0265L166.394 69.624L166.58 73.4338C166.69 75.6868 168.64 77.4033 170.889 77.2262L194.493 75.3683C197.138 75.16 198.852 72.48 197.93 69.9913L185.799 37.2392C185.017 35.1271 186.132 32.7858 188.265 32.062L213.387 23.5373C215.347 22.8723 216.476 20.8222 215.99 18.8105L214.747 13.6616C214.253 11.6174 212.261 10.3046 210.188 10.6572Z" fill="#875625"/>
<path d="M243.531 58.4268C254.328 56.6461 265.139 61.5645 270.89 70.874L271.163 71.3271L341.237 189.861L397.229 218.781C404.462 222.517 409.611 229.31 411.269 237.252L411.418 238.024L427.26 326.736C428.683 334.704 426.457 342.889 421.195 349.038L364.822 414.912C359.692 420.906 352.196 424.357 344.307 424.357H78.2375C67.2451 424.357 57.3502 417.693 53.218 407.507L16.9807 318.179C13.7768 310.281 14.4896 301.333 18.9045 294.043L78.3772 195.834L94.7043 103.779C96.6704 92.6946 105.308 83.9933 116.378 81.9453L243.01 58.5176L243.531 58.4268Z" fill="#00A552" stroke="#DBEB56" stroke-width="30"/>
<path d="M328.763 198.238L258.251 78.9608C255.688 74.6252 250.691 72.3514 245.738 73.2677L119.107 96.6948C114.187 97.605 110.348 101.472 109.474 106.399L93.0503 199.005C92.7919 200.462 92.266 201.859 91.4993 203.125L31.7355 301.813C29.7733 305.053 29.4563 309.03 30.8802 312.54L67.1174 401.868C68.9539 406.395 73.3517 409.357 78.2373 409.357H344.307C347.814 409.357 351.145 407.824 353.425 405.16L409.798 339.285C412.137 336.552 413.126 332.914 412.494 329.373L396.652 240.661C395.996 236.984 393.664 233.823 390.346 232.109L333.586 202.793C331.582 201.758 329.911 200.18 328.763 198.238Z" fill="#00A552" stroke="white" stroke-width="30"/>
<path d="M247.103 80.6426C248.96 80.2991 250.834 81.1515 251.795 82.7773L322.307 202.055C324.172 205.21 326.888 207.775 330.145 209.457L386.905 238.772C388.149 239.415 389.023 240.601 389.269 241.979L405.111 330.691C405.348 332.019 404.977 333.383 404.1 334.408L347.726 400.283C346.871 401.282 345.622 401.857 344.307 401.857H78.2375C76.4055 401.857 74.7563 400.747 74.0676 399.049L37.8303 309.721C37.2964 308.404 37.4149 306.913 38.1506 305.698L97.9143 207.01C99.1602 204.952 100.015 202.683 100.435 200.314L116.859 107.709C117.186 105.862 118.626 104.411 120.471 104.069L247.103 80.6426Z" fill="#00A552" stroke="#FFBBFC" stroke-width="15"/>
<path d="M121.498 338.02H107.276V361.341H100.651V297.916H121.498C125.856 297.916 129.684 298.711 132.982 300.301C136.28 301.832 138.841 304.07 140.667 307.015C142.551 309.959 143.494 313.581 143.494 317.88C143.494 322.179 142.551 325.83 140.667 328.833C138.841 331.837 136.28 334.134 132.982 335.724C129.684 337.255 125.856 338.02 121.498 338.02ZM121.41 303.57H107.276V332.367H121.41C126.121 332.367 129.861 331.101 132.628 328.568C135.455 326.036 136.868 322.473 136.868 317.88C136.868 313.286 135.455 309.753 132.628 307.28C129.861 304.806 126.121 303.57 121.41 303.57ZM167.152 362.224C162.794 362.224 158.966 361.223 155.668 359.221C152.429 357.16 149.897 354.274 148.071 350.564C146.304 346.854 145.421 342.555 145.421 337.667C145.421 333.132 146.334 329.098 148.16 325.565C150.044 321.973 152.576 319.146 155.756 317.085C158.995 314.965 162.676 313.905 166.798 313.905C170.096 313.905 173.07 314.553 175.72 315.848C178.429 317.085 180.696 318.852 182.522 321.148C184.406 323.445 185.79 326.154 186.674 329.275C187.616 332.337 187.94 335.753 187.645 339.522H148.778V335.282H181.197C180.961 330.041 179.548 325.977 176.957 323.092C174.425 320.147 171.009 318.675 166.71 318.675C163.707 318.675 161.056 319.47 158.76 321.06C156.522 322.591 154.755 324.77 153.46 327.597C152.164 330.423 151.516 333.78 151.516 337.667C151.516 341.672 152.135 345.175 153.371 348.179C154.608 351.123 156.375 353.391 158.671 354.981C161.027 356.571 163.824 357.366 167.063 357.366C170.95 357.366 174.16 356.335 176.692 354.274C179.283 352.154 180.961 349.268 181.727 345.617H187.822C186.762 350.741 184.377 354.804 180.667 357.807C177.016 360.752 172.511 362.224 167.152 362.224ZM222.952 361.341V352.861C221.597 355.746 219.566 358.043 216.857 359.751C214.148 361.4 210.968 362.224 207.317 362.224C202.488 362.224 198.63 360.987 195.745 358.514C192.859 355.982 191.416 352.625 191.416 348.444C191.416 343.909 193.212 340.494 196.805 338.197C200.397 335.841 205.726 334.664 212.793 334.664C214.207 334.664 215.591 334.693 216.945 334.752C218.3 334.811 220.096 334.958 222.334 335.194V331.219C222.334 327.332 221.332 324.299 219.33 322.12C217.387 319.941 214.648 318.852 211.115 318.852C207.346 318.852 204.343 319.97 202.105 322.208C199.867 324.387 198.719 327.361 198.66 331.13H193.006C193.065 327.656 193.86 324.652 195.391 322.12C196.922 319.529 199.013 317.527 201.663 316.113C204.372 314.641 207.493 313.905 211.027 313.905C216.503 313.905 220.743 315.407 223.747 318.41C226.75 321.413 228.252 325.624 228.252 331.042V361.341H222.952ZM197.335 348.267C197.335 351.094 198.336 353.391 200.338 355.157C202.34 356.865 204.961 357.719 208.2 357.719C212.558 357.719 216.003 356.423 218.535 353.832C221.067 351.182 222.334 347.678 222.334 343.32V339.169C220.331 338.992 218.594 338.874 217.122 338.815C215.708 338.756 214.354 338.727 213.058 338.727C207.817 338.727 203.871 339.522 201.221 341.112C198.63 342.643 197.335 345.028 197.335 348.267ZM243.909 336.43V361.341H237.726V314.788H243.468V325.388C245.117 321.973 247.531 319.234 250.711 317.173C253.891 315.112 257.395 314.081 261.223 314.081V320.53C257.984 320.412 255.04 320.972 252.39 322.208C249.798 323.445 247.737 325.271 246.206 327.685C244.675 330.1 243.909 333.015 243.909 336.43Z" fill="white"/>
</svg>
