<svg width="212" height="223" viewBox="0 0 212 223" fill="none" xmlns="http://www.w3.org/2000/svg">
<path d="M134.847 23.3458L113.839 17.9887C113.477 17.8962 113.129 17.7534 112.806 17.5643L102.035 11.256C100.192 10.1766 97.826 10.7356 96.6609 12.5258L92.9826 18.1778C91.5106 20.4397 92.655 23.4803 95.253 24.2104L104.305 26.7541C106.549 27.3847 107.78 29.7928 106.978 31.9814L103.828 40.5774C103.121 42.5065 103.99 44.6575 105.839 45.5535L112.153 48.613C114.539 49.7694 117.37 48.3257 117.835 45.7148L119.598 35.8159C119.993 33.6003 122.137 32.1463 124.342 32.5992L132.479 34.2713C134.675 34.7226 136.814 33.2805 137.218 31.0749L137.793 27.9436C138.172 25.8748 136.885 23.8656 134.847 23.3458Z" fill="#875625"/>
<path d="M73.6832 44.1849C75.1039 40.6765 78.7897 38.6436 82.5151 39.3136L137.444 49.1938C141.008 49.835 143.697 52.7898 143.999 56.3983L146.533 86.6113C146.802 89.8274 148.039 92.8868 150.079 95.3877L193.815 149.006C195.81 151.452 196.18 154.843 194.76 157.662L174.057 198.755C172.713 201.424 169.993 203.121 167.005 203.156L45.1851 204.557C42.2018 204.591 39.447 202.962 38.0395 200.332L12.5278 152.651C10.9721 149.743 11.36 146.179 13.5045 143.674L49.5515 101.569C50.6752 100.257 51.5786 98.7704 52.2272 97.1688L73.6832 44.1849Z" fill="#00A552" stroke="#FFBBFC" stroke-width="8"/>
<path d="M66.9405 157.292L58.6948 160.821L65.0417 175.651L58.5163 178.444L40.2883 135.851L55.0592 129.53C58.223 128.176 61.2001 127.533 63.9903 127.602C66.8032 127.615 69.3022 128.371 71.4874 129.868C73.6556 131.327 75.3829 133.559 76.6692 136.564C77.9386 139.531 78.3692 142.341 77.9612 144.995C77.5362 147.61 76.3742 149.979 74.4753 152.102C72.6159 154.208 70.1043 155.938 66.9405 157.292ZM57.3609 135.072L49.1746 138.575L56.3338 155.304L64.5201 151.8C67.4071 150.565 69.3397 148.849 70.318 146.652C71.3359 144.438 71.2863 142.027 70.1693 139.416C69.0353 136.767 67.3332 135.085 65.0629 134.373C62.8152 133.603 60.2479 133.836 57.3609 135.072Z" fill="white"/>
<path d="M92.0177 184.633C88.8236 184.878 85.9693 184.388 83.455 183.163C80.9789 181.893 78.9767 180.002 77.4484 177.491C75.9201 174.979 75.0237 172.002 74.759 168.559C74.5072 165.282 74.9684 162.326 76.1429 159.69C77.3173 157.054 79.0309 154.92 81.2838 153.286C83.5335 151.611 86.1725 150.657 89.2007 150.424C91.6896 150.233 93.9456 150.54 95.9686 151.344C98.0298 152.103 99.8103 153.281 101.31 154.877C102.848 156.427 104.016 158.32 104.813 160.553C105.608 162.746 105.963 165.201 105.88 167.92L78.5641 170.019L78.2437 165.85L98.9018 164.262C98.5414 161.202 97.5077 158.882 95.8007 157.303C94.1319 155.679 92.0116 154.965 89.4397 155.163C87.573 155.306 85.9727 155.93 84.6388 157.034C83.3433 158.093 82.3715 159.566 81.7237 161.452C81.1141 163.293 80.9081 165.499 81.1058 168.071C81.3035 170.643 81.8474 172.834 82.7376 174.643C83.6245 176.411 84.8115 177.738 86.2984 178.626C87.7853 179.513 89.5243 179.88 91.5154 179.727C93.8799 179.545 95.7834 178.794 97.2257 177.473C98.7096 176.149 99.6175 174.389 99.9495 172.194L106.172 171.715C105.664 175.426 104.144 178.443 101.61 180.766C99.1144 183.044 95.917 184.333 92.0177 184.633Z" fill="white"/>
<path d="M128.993 179.076L129.558 174.453C128.416 175.992 126.982 177.113 125.256 177.818C123.529 178.522 121.557 178.738 119.34 178.467C116.258 178.09 113.877 176.979 112.195 175.133C110.518 173.249 109.848 170.936 110.183 168.192C110.542 165.26 111.959 163.183 114.436 161.96C116.95 160.742 120.424 160.404 124.859 160.947C125.724 161.052 126.567 161.175 127.389 161.313C128.211 161.452 129.215 161.67 130.399 161.968L130.668 159.769C130.925 157.664 130.58 155.963 129.633 154.664C128.69 153.328 127.223 152.539 125.231 152.295C123.164 152.042 121.437 152.441 120.049 153.492C118.704 154.51 117.867 156.048 117.539 158.106L112.353 157.471C112.704 155.226 113.488 153.338 114.705 151.808C115.964 150.246 117.532 149.122 119.409 148.436C121.328 147.717 123.452 147.5 125.783 147.785C129.466 148.235 132.2 149.581 133.986 151.821C135.814 154.028 136.51 156.917 136.073 160.487L133.728 179.655L128.993 179.076ZM115.616 168.685C115.427 170.226 115.821 171.533 116.796 172.606C117.771 173.679 119.16 174.325 120.964 174.546C123.369 174.84 125.35 174.396 126.906 173.213C128.467 171.993 129.388 170.236 129.668 167.943L129.965 165.519C128.888 165.273 127.939 165.081 127.117 164.942C126.299 164.766 125.515 164.632 124.763 164.54C121.907 164.19 119.712 164.36 118.178 165.05C116.686 165.707 115.832 166.918 115.616 168.685Z" fill="white"/>
<path d="M149.774 169.125L147.359 184.879L141.487 183.979L146.211 153.169L151.676 154.007L150.678 160.517C152.09 158.552 153.956 157.113 156.278 156.2C158.638 155.292 161.078 155.032 163.597 155.418L162.661 161.522C160.47 161.067 158.455 161.016 156.616 161.368C154.816 161.727 153.302 162.546 152.074 163.826C150.892 165.072 150.125 166.839 149.774 169.125Z" fill="white"/>
</svg>
