<svg preserveAspectRatio="none" width="100%" height="100%" overflow="visible" style="display: block;" viewBox="0 0 14 14" fill="none" xmlns="http://www.w3.org/2000/svg">
<path d="M11.4018 6.5893C11.3408 6.65048 11.2684 6.69902 11.1886 6.73214C11.1088 6.76526 11.0233 6.78231 10.937 6.78231C10.8506 6.78231 10.7651 6.76526 10.6853 6.73214C10.6055 6.69902 10.5331 6.65048 10.4721 6.5893L7.65625 3.77344V11.8125C7.65625 11.9865 7.58711 12.1535 7.46404 12.2765C7.34097 12.3996 7.17405 12.4687 7 12.4687C6.82595 12.4687 6.65903 12.3996 6.53596 12.2765C6.41289 12.1535 6.34375 11.9865 6.34375 11.8125V3.77344L3.5268 6.5893C3.40351 6.71258 3.2363 6.78184 3.06195 6.78184C2.8876 6.78184 2.72039 6.71258 2.59711 6.5893C2.47383 6.46601 2.40456 6.2988 2.40456 6.12445C2.40456 5.9501 2.47383 5.78289 2.59711 5.65961L6.53461 1.72211C6.59558 1.66093 6.66802 1.61239 6.74779 1.57926C6.82756 1.54614 6.91308 1.52909 6.99945 1.52909C7.08582 1.52909 7.17135 1.54614 7.25112 1.57926C7.33088 1.61239 7.40333 1.66093 7.4643 1.72211L11.4018 5.65961C11.463 5.72058 11.5115 5.79302 11.5446 5.87279C11.5778 5.95256 11.5948 6.03808 11.5948 6.12445C11.5948 6.21082 11.5778 6.29635 11.5446 6.37612C11.5115 6.45588 11.463 6.52833 11.4018 6.5893Z" fill="currentColor"/>
</svg>
